<svg width="32" height="33" viewBox="0 0 32 33" fill="none" xmlns="http://www.w3.org/2000/svg">
<path d="M16.0003 29.8327C13.6448 29.8327 11.7225 29.4607 10.2337 28.7167C8.74477 27.9727 8.00033 27.0114 8.00033 25.8327C8.00033 25.2994 8.16166 24.8051 8.48433 24.35C8.80699 23.8949 9.25633 23.5002 9.83233 23.166L11.9323 25.1327C11.7323 25.2216 11.5154 25.3216 11.2817 25.4327C11.0479 25.5438 10.8648 25.6771 10.7323 25.8327C11.0212 26.1882 11.6879 26.4994 12.7323 26.766C13.7768 27.0327 14.8661 27.166 16.0003 27.166C17.1345 27.166 18.2292 27.0327 19.2843 26.766C20.3394 26.4994 21.0114 26.1882 21.3003 25.8327C21.1448 25.6549 20.9448 25.5105 20.7003 25.3994C20.4559 25.2882 20.2225 25.1882 20.0003 25.0994L22.067 23.0994C22.6892 23.4549 23.167 23.8607 23.5003 24.3167C23.8337 24.7727 24.0003 25.278 24.0003 25.8327C24.0003 27.0105 23.2559 27.9718 21.767 28.7167C20.2781 29.4616 18.3559 29.8336 16.0003 29.8327ZM16.0337 22.4994C18.2337 20.8771 19.8892 19.2496 21.0003 17.6167C22.1114 15.9838 22.667 14.3447 22.667 12.6994C22.667 10.4327 21.9448 8.72157 20.5003 7.56602C19.0559 6.41046 17.5559 5.83269 16.0003 5.83269C14.4448 5.83269 12.9448 6.41046 11.5003 7.56602C10.0559 8.72157 9.33366 10.4327 9.33366 12.6994C9.33366 14.1882 9.8781 15.7385 10.967 17.35C12.0559 18.9616 13.7448 20.678 16.0337 22.4994ZM16.0003 25.8327C12.867 23.5216 10.5283 21.2771 8.98433 19.0994C7.44033 16.9216 6.66788 14.7882 6.66699 12.6994C6.66699 11.1216 6.95055 9.73802 7.51766 8.54869C8.08477 7.35935 8.81233 6.36513 9.70033 5.56602C10.5883 4.76691 11.5883 4.16691 12.7003 3.76602C13.8123 3.36513 14.9123 3.16513 16.0003 3.16602C17.0883 3.16691 18.1883 3.36691 19.3003 3.76602C20.4123 4.16513 21.4123 4.76513 22.3003 5.56602C23.1883 6.36691 23.9163 7.36157 24.4843 8.55002C25.0523 9.73846 25.3354 11.1216 25.3337 12.6994C25.3337 14.7882 24.5617 16.9216 23.0177 19.0994C21.4737 21.2771 19.1345 23.5216 16.0003 25.8327ZM16.0003 15.166C16.7337 15.166 17.3617 14.9051 17.8843 14.3834C18.407 13.8616 18.6679 13.2336 18.667 12.4994C18.6661 11.7651 18.4052 11.1376 17.8843 10.6167C17.3634 10.0958 16.7354 9.83446 16.0003 9.83269C15.2652 9.83091 14.6377 10.0922 14.1177 10.6167C13.5977 11.1411 13.3363 11.7687 13.3337 12.4994C13.331 13.23 13.5923 13.858 14.1177 14.3834C14.643 14.9087 15.2705 15.1696 16.0003 15.166Z" fill="white"/>
</svg>
