<svg width="13" height="13" viewBox="0 0 13 13" fill="none" xmlns="http://www.w3.org/2000/svg">
<g clip-path="url(#clip0_943_3062)">
<path d="M5.7004 1.06116L1.11091 5.66466C1.01732 5.75857 0.964863 5.8858 0.965072 6.01839C0.965281 6.15097 1.01814 6.27804 1.11202 6.37166L5.71602 10.9609C5.76252 11.0073 5.81771 11.044 5.87843 11.0691C5.93914 11.0941 6.0042 11.107 6.06987 11.1069C6.13555 11.1068 6.20057 11.0937 6.2612 11.0685C6.32184 11.0432 6.37691 11.0063 6.42327 10.9598L11.012 6.35629C11.1056 6.26238 11.1581 6.13514 11.1578 6.00256C11.1576 5.86997 11.1048 5.7429 11.0109 5.64929L6.4074 1.05979C6.36089 1.01342 6.30571 0.976656 6.24499 0.951612C6.18428 0.926568 6.11922 0.913731 6.05354 0.913835C5.98787 0.913938 5.92285 0.92698 5.86222 0.952216C5.80158 0.977452 5.74651 1.01439 5.70015 1.06091L5.7004 1.06116Z" stroke="#FFD500" stroke-width="1.23" stroke-linejoin="round"/>
</g>
<defs>
<clipPath id="clip0_943_3062">
<rect width="12" height="12" fill="white" transform="translate(0 0.0195312) rotate(-0.0903916)"/>
</clipPath>
</defs>
</svg>
