<svg width="25" height="25" viewBox="0 0 25 25" fill="none" xmlns="http://www.w3.org/2000/svg">
<path d="M11.6399 21.1527L11.5889 21.2367C11.5608 21.2702 11.5256 21.2971 11.486 21.3155C11.4463 21.334 11.4031 21.3435 11.3594 21.3435C11.3157 21.3435 11.2725 21.334 11.2329 21.3155C11.1932 21.2971 11.1581 21.2702 11.1299 21.2367L11.0789 21.1527L10.9754 20.8902L11.3594 21.0417L11.7419 20.8917L11.6399 21.1527ZM11.0789 4.56874C11.1005 4.51182 11.1389 4.46282 11.189 4.42823C11.2391 4.39365 11.2985 4.37513 11.3594 4.37513C11.4203 4.37513 11.4797 4.39365 11.5298 4.42823C11.5799 4.46282 11.6183 4.51182 11.6399 4.56874L13.1879 8.49574C13.4142 9.06944 13.756 9.5905 14.1921 10.0266C14.6282 10.4627 15.1492 10.8045 15.7229 11.0307L19.3889 12.4752L19.5404 12.8592L19.3904 13.2417L15.7229 14.6877L15.5084 14.7777C14.4474 15.2613 13.6154 16.1379 13.1879 17.2227L11.7419 20.8887L11.3594 21.0402L10.9754 20.8902L9.53092 17.2227C9.10342 16.1379 8.27149 15.2613 7.21042 14.7777L6.99592 14.6877L3.06592 13.1397C3.009 13.1181 2.96 13.0798 2.92542 13.0297C2.89083 12.9796 2.87231 12.9201 2.87231 12.8592C2.87231 12.7984 2.89083 12.7389 2.92542 12.6888C2.96 12.6387 3.009 12.6003 3.06592 12.5787L3.32842 12.4752L6.99592 11.0307C8.08079 10.6032 8.95735 9.7713 9.44092 8.71024L9.53092 8.49574L11.0789 4.56874ZM10.9259 9.04774C10.3554 10.4936 9.24598 11.6616 7.83142 12.3057L7.54642 12.4257L6.44692 12.8607L7.54642 13.2942C8.31121 13.596 9.00584 14.0516 9.58719 14.633C10.1685 15.2143 10.6242 15.9089 10.9259 16.6737L11.3594 17.7717L11.7944 16.6737C12.096 15.9091 12.5514 15.2146 13.1325 14.6332C13.7136 14.0519 14.4079 13.5961 15.1724 13.2942L16.2704 12.8607L15.1724 12.4257C13.7271 11.8559 12.5592 10.7477 11.9144 9.33424L11.7944 9.04924L11.3594 7.94824L10.9259 9.04774ZM19.6514 12.5802C19.7083 12.6018 19.7573 12.6402 19.7919 12.6903C19.8265 12.7404 19.845 12.7999 19.845 12.8607C19.845 12.9216 19.8265 12.9811 19.7919 13.0312C19.7573 13.0813 19.7083 13.1196 19.6514 13.1412L19.3889 13.2432L19.5404 12.8592L19.3904 12.4767L19.6514 12.5802ZM19.4039 5.15974C19.7399 5.76124 20.2724 6.23374 20.9204 6.49024L21.5054 6.72124C21.5334 6.7323 21.5574 6.75151 21.5743 6.77639C21.5912 6.80127 21.6003 6.83066 21.6003 6.86074C21.6003 6.89082 21.5912 6.92021 21.5743 6.94509C21.5574 6.96997 21.5334 6.98918 21.5054 7.00024L21.3749 7.05124L20.9204 7.23124L20.6384 7.36024C19.9959 7.69375 19.4956 8.24835 19.2299 8.92174L19.0499 9.37624L18.9989 9.50674L18.9749 9.54874C18.9608 9.56573 18.9432 9.5794 18.9232 9.58878C18.9033 9.59817 18.8815 9.60303 18.8594 9.60303C18.8374 9.60303 18.8156 9.59817 18.7956 9.58878C18.7756 9.5794 18.758 9.56573 18.7439 9.54874L18.7199 9.50674L18.6674 9.37624L18.4874 8.92174C18.2224 8.24885 17.7233 7.69432 17.0819 7.36024L16.7984 7.23124L16.2134 7.00024C16.1854 6.98918 16.1614 6.96997 16.1445 6.94509C16.1276 6.92021 16.1186 6.89082 16.1186 6.86074C16.1186 6.83066 16.1276 6.80127 16.1445 6.77639C16.1614 6.75151 16.1854 6.7323 16.2134 6.72124L16.3424 6.66874L16.7984 6.48874C17.4464 6.23374 17.9774 5.76124 18.3134 5.15974L18.8594 4.94524L19.4039 5.15974ZM18.7199 4.21474C18.731 4.18676 18.7502 4.16275 18.7751 4.14584C18.7999 4.12892 18.8293 4.11987 18.8594 4.11987C18.8895 4.11987 18.9189 4.12892 18.9438 4.14584C18.9686 4.16275 18.9879 4.18676 18.9989 4.21474L19.2299 4.79974C19.2799 4.92374 19.3379 5.04374 19.4039 5.15974L18.8594 4.94524L18.3134 5.15974L18.3599 5.08174L18.4889 4.79974L18.7199 4.21474ZM19.4984 14.6412C19.5075 14.6192 19.5228 14.6004 19.5426 14.5872C19.5624 14.5739 19.5856 14.5668 19.6094 14.5668C19.6332 14.5668 19.6565 14.5739 19.6762 14.5872C19.696 14.6004 19.7114 14.6192 19.7204 14.6412C20.0199 15.4015 20.4726 16.092 21.0503 16.6698C21.6281 17.2476 22.3186 17.7003 23.0789 17.9997C23.1009 18.0088 23.1198 18.0242 23.133 18.0439C23.1463 18.0637 23.1533 18.0869 23.1533 18.1107C23.1533 18.1345 23.1463 18.1578 23.133 18.1776C23.1198 18.1973 23.1009 18.2127 23.0789 18.2217L22.9739 18.2667C22.2373 18.573 21.5698 19.0241 21.0109 19.5933C20.452 20.1625 20.0131 20.8382 19.7204 21.5802L19.7024 21.6132C19.6912 21.6268 19.6771 21.6377 19.6611 21.6451C19.6452 21.6526 19.6278 21.6565 19.6102 21.6565C19.5926 21.6565 19.5752 21.6526 19.5592 21.6451C19.5433 21.6377 19.5292 21.6268 19.5179 21.6132L19.4984 21.5787C18.9324 20.1421 17.8304 18.9814 16.4249 18.3417L16.1399 18.2217C16.1179 18.2127 16.0991 18.1973 16.0858 18.1776C16.0726 18.1578 16.0655 18.1345 16.0655 18.1107C16.0655 18.0869 16.0726 18.0637 16.0858 18.0439C16.0991 18.0242 16.1179 18.0088 16.1399 17.9997C16.9002 17.7003 17.5907 17.2476 18.1685 16.6698C18.7463 16.092 19.199 15.4015 19.4984 14.6412ZM19.6094 17.3172C19.3644 17.6022 19.0994 17.8667 18.8144 18.1107C19.0994 18.3557 19.3644 18.6197 19.6094 18.9027C19.8544 18.6187 20.1184 18.3547 20.4014 18.1107C20.1179 17.8659 19.8532 17.6016 19.6094 17.3172Z" fill="white"/>
</svg>
