<svg width="20" height="20" viewBox="0 0 20 20" fill="none" xmlns="http://www.w3.org/2000/svg">
<path d="M10 2.2002C11.0795 2.2002 12.0927 2.40543 13.041 2.81445C13.9931 3.22512 14.8184 3.78074 15.5186 4.48145C16.2188 5.1822 16.7748 6.00744 17.1865 6.95898C17.5965 7.90662 17.8014 8.92009 17.7998 10C17.7982 11.0802 17.593 12.0932 17.1855 13.041C16.7765 13.9924 16.2209 14.8178 15.5186 15.5186C14.8161 16.2194 13.9909 16.7753 13.041 17.1865C12.095 17.5959 11.0816 17.8008 10 17.7998L9.59766 17.79C8.66701 17.7452 7.7877 17.5434 6.95898 17.1855C6.00804 16.7749 5.18274 16.2193 4.48145 15.5186C3.78018 14.8178 3.22457 13.9925 2.81445 13.041C2.40596 12.0932 2.20073 11.0801 2.2002 10C2.19967 8.91999 2.40495 7.9067 2.81445 6.95898C3.22566 6.00747 3.78124 5.18219 4.48145 4.48145C5.18163 3.78074 6.00695 3.22512 6.95898 2.81445C7.90732 2.40543 8.92048 2.2002 10 2.2002ZM10 9C9.72319 8.99946 9.48177 9.09581 9.28906 9.28906C9.0966 9.48219 9 9.72365 9 10V13.2002C9.00005 13.4773 9.09622 13.7193 9.28906 13.9121C9.45785 14.0808 9.66409 14.1748 9.89844 14.1953L10 14.2002C10.2771 14.2002 10.519 14.104 10.7119 13.9111C10.8807 13.7423 10.9755 13.5361 10.9961 13.3018L11 13.1992V10C11 9.72297 10.9039 9.48147 10.7109 9.28906C10.5182 9.09702 10.2764 9.00065 10 9ZM16.2002 10C16.2002 11.7347 15.6001 13.1967 14.3984 14.3984C13.1967 15.6001 11.7347 16.2002 10 16.2002C8.26526 16.2002 6.80327 15.6001 5.60156 14.3984L5.38281 14.1699C4.39738 13.09 3.87227 11.8102 3.80664 10.3223L3.7998 10C3.7998 8.37383 4.32695 6.98718 5.38281 5.83008L5.60156 5.60156C6.80327 4.39986 8.26526 3.7998 10 3.7998C11.7347 3.79981 13.1967 4.39986 14.3984 5.60156C15.6001 6.80327 16.2002 8.26526 16.2002 10ZM10 5.7998C9.72302 5.7998 9.48145 5.89598 9.28906 6.08887C9.09702 6.28158 9.00065 6.52343 9 6.7998C8.99941 7.0768 9.09583 7.31848 9.28906 7.51172C9.48217 7.70482 9.72351 7.79992 10 7.79883C10.2771 7.79883 10.519 7.70363 10.7119 7.51074C10.9046 7.31793 11.0006 7.0765 11 6.7998C10.9993 6.52343 10.903 6.28158 10.7109 6.08887C10.5185 5.89598 10.277 5.79981 10 5.7998ZM16.5996 10C16.5996 8.16141 15.9599 6.59665 14.6816 5.31836L14.4385 5.08594C13.2066 3.96242 11.7236 3.40039 10 3.40039C8.16141 3.40039 6.59665 4.04007 5.31836 5.31836C4.04007 6.59665 3.40039 8.16141 3.40039 10C3.40039 11.8386 4.04007 13.4033 5.31836 14.6816C6.59665 15.9599 8.16141 16.5996 10 16.5996C11.7236 16.5996 13.2066 16.0376 14.4385 14.9141L14.6816 14.6816C15.88 13.4833 16.5177 12.0332 16.5928 10.3418L16.5996 10Z" fill="#494949" stroke="#494949" stroke-width="0.4"/>
</svg>
