<svg width="20" height="20" viewBox="0 0 20 20" fill="none" xmlns="http://www.w3.org/2000/svg">
<path d="M10 2.2002C11.0795 2.2002 12.0927 2.40543 13.041 2.81445C13.9931 3.22512 14.8184 3.78074 15.5186 4.48145C16.2188 5.1822 16.7748 6.00744 17.1865 6.95898C17.5965 7.90662 17.8014 8.92009 17.7998 10C17.7982 11.0802 17.593 12.0932 17.1855 13.041C16.7765 13.9924 16.2209 14.8178 15.5186 15.5186C14.8161 16.2194 13.9909 16.7754 13.041 17.1865C12.095 17.5959 11.0816 17.8008 10 17.7998L9.59766 17.79C8.66701 17.7452 7.7877 17.5434 6.95898 17.1855C6.00804 16.7749 5.18274 16.2193 4.48145 15.5186C3.78018 14.8178 3.22457 13.9925 2.81445 13.041C2.40596 12.0932 2.20073 11.0801 2.2002 10C2.19967 8.92 2.40495 7.9067 2.81445 6.95898C3.22566 6.00747 3.78124 5.18218 4.48145 4.48145C5.18163 3.78074 6.00695 3.22512 6.95898 2.81445C7.90732 2.40543 8.92048 2.2002 10 2.2002ZM10 3.40039C8.16141 3.40039 6.59665 4.04007 5.31836 5.31836C4.04007 6.59665 3.40039 8.16141 3.40039 10C3.40039 11.8386 4.04007 13.4033 5.31836 14.6816C6.59665 15.9599 8.16141 16.5996 10 16.5996C11.8386 16.5996 13.4033 15.9599 14.6816 14.6816C15.9599 13.4033 16.5996 11.8386 16.5996 10C16.5996 8.16141 15.9599 6.59665 14.6816 5.31836C13.4033 4.04007 11.8386 3.40039 10 3.40039ZM10 9.40039C10.1757 9.40091 10.3143 9.45828 10.4287 9.57227C10.5426 9.68591 10.5996 9.82394 10.5996 10V13.2002L10.5898 13.3252C10.5686 13.4434 10.5144 13.5422 10.4287 13.6279C10.3144 13.7422 10.1762 13.7998 10 13.7998C9.82474 13.8002 9.68652 13.7431 9.57227 13.6289C9.458 13.5146 9.40043 13.3763 9.40039 13.2002V10C9.40039 9.82515 9.45753 9.68642 9.57227 9.57129C9.68656 9.45672 9.82498 9.39998 10 9.40039ZM10 6.2002C10.176 6.2002 10.3141 6.25724 10.4277 6.37109C10.5418 6.48558 10.5992 6.62489 10.5996 6.80078C10.6 6.976 10.5429 7.11429 10.4287 7.22852C10.3145 7.34263 10.176 7.40039 10 7.40039H9.99902C9.82472 7.40121 9.6872 7.34345 9.57227 7.22852C9.45737 7.11362 9.40005 6.97578 9.40039 6.80078C9.40081 6.62489 9.45818 6.48558 9.57227 6.37109C9.68589 6.25724 9.82399 6.2002 10 6.2002Z" fill="#9A9A9A" stroke="#9A9A9A" stroke-width="0.4"/>
</svg>
