<svg width="33" height="33" viewBox="0 0 33 33" fill="none" xmlns="http://www.w3.org/2000/svg">
<g clip-path="url(#clip0_1_1588)">
<path d="M5.9269 17.3063L6.01614 17.1646L11.4814 8.61757C11.4997 8.58948 11.5252 8.56681 11.5553 8.55195C11.5853 8.53708 11.6188 8.53056 11.6523 8.53306C11.6857 8.53557 11.7179 8.547 11.7454 8.56618C11.7729 8.58536 11.7947 8.61157 11.8086 8.64208C12.7186 10.6878 13.5096 13.2323 13.1386 14.8161C12.9846 15.4671 12.5524 16.3491 12.0641 17.1646C12.0027 17.2845 11.9343 17.4008 11.8594 17.5128C11.8424 17.5387 11.8189 17.5596 11.7913 17.5735C11.7636 17.5873 11.7328 17.5935 11.7019 17.5916H6.08965C6.05615 17.5921 6.02313 17.5835 5.99411 17.5668C5.96509 17.5501 5.94114 17.5258 5.92481 17.4965C5.90848 17.4673 5.90037 17.4341 5.90136 17.4007C5.90234 17.3672 5.91238 17.3346 5.93039 17.3063H5.9269Z" fill="white"/>
<path d="M30.2764 20.2463C30.2766 20.2836 30.266 20.3202 30.2458 20.3516C30.2256 20.383 30.1967 20.4078 30.1626 20.4231C29.7374 20.6033 28.2901 21.2718 27.6881 22.1066C26.1516 24.2451 24.9791 27.3041 22.3541 27.3041H11.4096C10.4856 27.3025 9.57102 27.1189 8.71799 26.7637C7.86497 26.4086 7.09026 25.8889 6.43811 25.2343C5.78597 24.5797 5.26916 23.8031 4.91721 22.9487C4.56526 22.0944 4.38505 21.1791 4.3869 20.2551V20.1291C4.3869 20.0276 4.47089 19.9436 4.57589 19.9436H10.6746C10.7971 19.9436 10.8846 20.0538 10.8759 20.1746C10.8304 20.5701 10.9056 20.9778 11.0946 21.3471C11.4551 22.0821 12.2076 22.5406 13.0179 22.5406H16.0384V20.1833H13.0494C13.0144 20.183 12.9801 20.173 12.9503 20.1546C12.9205 20.1362 12.8963 20.11 12.8803 20.0789C12.8642 20.0478 12.857 20.0128 12.8594 19.9779C12.8617 19.9429 12.8736 19.9093 12.8936 19.8806L13.0039 19.7231C13.2839 19.3188 13.6881 18.6976 14.0906 17.9871C14.3636 17.5076 14.6296 16.9966 14.8431 16.4821C14.8828 16.3887 14.9207 16.2954 14.9569 16.2021C15.0146 16.0376 15.0741 15.8836 15.1161 15.7313C15.1571 15.6021 15.195 15.472 15.2299 15.3411C15.3296 14.9036 15.3716 14.4416 15.3716 13.9638C15.3716 13.7748 15.3646 13.5771 15.3471 13.3916C15.3384 13.1868 15.3121 12.9803 15.2876 12.7756C15.2692 12.5922 15.2412 12.41 15.2036 12.2296C15.1558 11.9547 15.0986 11.6815 15.0321 11.4106L15.0076 11.3056C14.9551 11.1166 14.9096 10.9381 14.8501 10.7508C14.6831 10.1759 14.4916 9.60838 14.2761 9.04982C14.2013 8.83965 14.1184 8.63241 14.0276 8.42857C13.9016 8.11707 13.7721 7.83533 13.6549 7.57108C13.5969 7.45768 13.5421 7.34272 13.4904 7.22633C13.4333 7.10067 13.3732 6.97639 13.3101 6.85357C13.2681 6.76083 13.2174 6.67157 13.1841 6.58757L12.8149 5.90857C12.7641 5.81582 12.8481 5.70208 12.9496 5.73182L15.2596 6.35657H15.2771L15.5799 6.44407L15.9159 6.53858L16.0384 6.57183V5.20157C16.0384 4.53832 16.5669 4.00107 17.2266 4.00107C17.3824 4.00066 17.5367 4.03176 17.6801 4.09251C17.8236 4.15326 17.9533 4.2424 18.0614 4.35457C18.2833 4.58099 18.4087 4.88459 18.4114 5.20157V7.23857L18.6581 7.30682C18.6768 7.31499 18.6949 7.32491 18.7124 7.33657C18.7731 7.37974 18.8588 7.44391 18.9696 7.52907C19.056 7.59791 19.1522 7.67782 19.2584 7.76882C19.6043 8.04992 19.9394 8.34414 20.2629 8.65082C20.6374 8.99907 21.0574 9.40683 21.4599 9.86007C21.5736 9.98957 21.6821 10.1156 21.7959 10.2556C21.9044 10.3938 22.0269 10.5286 22.1284 10.6616C22.2666 10.8436 22.4084 11.0326 22.5396 11.2286C22.5974 11.3213 22.6691 11.4176 22.7234 11.5103C22.8914 11.7588 23.0349 12.0143 23.1731 12.2716C23.2326 12.3888 23.2904 12.5183 23.3411 12.6443C23.4969 12.9891 23.6194 13.3373 23.6946 13.6908C23.7168 13.7666 23.7337 13.8438 23.7454 13.9218V13.9393C23.7699 14.0391 23.7786 14.1493 23.7874 14.2613C23.8343 14.7785 23.7711 15.2998 23.6019 15.7908C23.5476 15.9378 23.4969 16.0883 23.4304 16.2353C23.2991 16.5328 23.1486 16.8356 22.9684 17.1138C22.9089 17.2188 22.8371 17.3273 22.7706 17.4323C22.6954 17.5426 22.6149 17.6476 22.5484 17.7473C22.452 17.8797 22.3511 18.0087 22.2456 18.1341C22.1546 18.2624 22.0578 18.3843 21.9551 18.4998C21.8151 18.6713 21.6722 18.8335 21.5264 18.9863C21.4424 19.0878 21.3514 19.1928 21.2534 19.2838C21.1624 19.3888 21.0644 19.4816 20.9804 19.5656C20.8334 19.7126 20.7179 19.8228 20.6164 19.9191L20.3766 20.1326C20.3602 20.1493 20.3406 20.1626 20.319 20.1716C20.2973 20.1806 20.2741 20.1852 20.2506 20.1851H18.4114V22.5406H20.7249C21.2411 22.5406 21.7329 22.3586 22.1319 22.0191L22.1366 22.015C22.2798 21.8904 22.8659 21.3805 23.5599 20.6156C23.5832 20.5898 23.6137 20.5715 23.6474 20.5631L30.0349 18.7133C30.0629 18.7052 30.0925 18.7037 30.1212 18.7089C30.1499 18.7142 30.1771 18.726 30.2005 18.7434C30.2238 18.7609 30.2429 18.7835 30.2561 18.8096C30.2692 18.8356 30.2762 18.8644 30.2764 18.8936V20.2463Z" fill="white"/>
</g>
<defs>
<clipPath id="clip0_1_1588">
<rect width="32" height="32" fill="white" transform="translate(0.566895 0.601074)"/>
</clipPath>
</defs>
</svg>
