<svg width="25" height="25" viewBox="0 0 25 25" fill="none" xmlns="http://www.w3.org/2000/svg">
<path opacity="0.32" fill-rule="evenodd" clip-rule="evenodd" d="M12.6582 5.05423C10.5744 5.05423 8.57586 5.88204 7.10236 7.35554C5.62886 8.82904 4.80106 10.8275 4.80106 12.9114C4.80106 14.9952 5.62886 16.9937 7.10236 18.4672C8.57586 19.9407 10.5744 20.7685 12.6582 20.7685C14.742 20.7685 16.7405 19.9407 18.214 18.4672C19.6875 16.9937 20.5153 14.9952 20.5153 12.9114C20.5153 10.8275 19.6875 8.82904 18.214 7.35554C16.7405 5.88204 14.742 5.05423 12.6582 5.05423ZM1.6582 12.9114C1.6582 6.83623 6.58306 1.91138 12.6582 1.91138C18.7333 1.91138 23.6582 6.83623 23.6582 12.9114C23.6582 18.9865 18.7333 23.9114 12.6582 23.9114C6.58306 23.9114 1.6582 18.9865 1.6582 12.9114Z" fill="black"/>
<path fill-rule="evenodd" clip-rule="evenodd" d="M12.6582 1.91138V5.05423C14.742 5.05423 16.7405 5.88204 18.214 7.35554C19.6875 8.82904 20.5153 10.8275 20.5153 12.9114C20.5153 13.9458 20.3114 14.9592 19.9257 15.8978L22.8319 17.1019C23.3644 15.8103 23.6582 14.3952 23.6582 12.9114C23.6582 6.83623 18.7333 1.91138 12.6582 1.91138Z" fill="#00D66F"/>
</svg>
