<svg width="25" height="25" viewBox="0 0 25 25" fill="none" xmlns="http://www.w3.org/2000/svg">
<path opacity="0.32" fill-rule="evenodd" clip-rule="evenodd" d="M12.7617 5.01859C10.6779 5.01859 8.67938 5.84639 7.20588 7.31989C5.73238 8.79339 4.90458 10.7919 4.90458 12.8757C4.90458 14.9596 5.73238 16.9581 7.20588 18.4316C8.67938 19.9051 10.6779 20.7329 12.7617 20.7329C14.8456 20.7329 16.8441 19.9051 18.3176 18.4316C19.7911 16.9581 20.6189 14.9596 20.6189 12.8757C20.6189 10.7919 19.7911 8.79339 18.3176 7.31989C16.8441 5.84639 14.8456 5.01859 12.7617 5.01859ZM1.76172 12.8757C1.76172 6.80059 6.68658 1.87573 12.7617 1.87573C18.8369 1.87573 23.7617 6.80059 23.7617 12.8757C23.7617 18.9509 18.8369 23.8757 12.7617 23.8757C6.68658 23.8757 1.76172 18.9509 1.76172 12.8757Z" fill="black"/>
<path fill-rule="evenodd" clip-rule="evenodd" d="M12.7617 1.87573V5.01859C14.8456 5.01859 16.8441 5.84639 18.3176 7.31989C19.7911 8.79339 20.6189 10.7919 20.6189 12.8757C20.6189 13.9102 20.4149 14.9236 20.0292 15.8622L22.9354 17.0662C23.4679 15.7747 23.7617 14.3595 23.7617 12.8757C23.7617 6.80059 18.8369 1.87573 12.7617 1.87573Z" fill="#00D66F"/>
<path d="M12.7617 20.7329C10.6779 20.7329 8.67938 19.9051 7.20588 18.4316C6.46384 17.6895 5.88555 16.8144 5.49427 15.8622L2.58805 17.0662C4.236 21.0628 8.17035 23.8757 12.7617 23.8757C17.3531 23.8757 21.2874 21.0628 22.9354 17.0662L20.0292 15.8622C19.6379 16.8144 19.0596 17.6895 18.3176 18.4316C16.8441 19.9051 14.8456 20.7329 12.7617 20.7329Z" fill="#00D66F"/>
<path d="M7.20588 7.31989C8.67938 5.84639 10.6779 5.01859 12.7617 5.01859V1.87573C6.68658 1.87573 1.76172 6.80059 1.76172 12.8757C1.76172 14.3595 2.05549 15.7747 2.58805 17.0662L5.49427 15.8622C5.10857 14.9236 4.90458 13.9102 4.90458 12.8757C4.90458 10.7919 5.73238 8.79339 7.20588 7.31989Z" fill="#00D66F"/>
</svg>
