<svg width="25" height="25" viewBox="0 0 25 25" fill="none" xmlns="http://www.w3.org/2000/svg">
<path opacity="0.32" fill-rule="evenodd" clip-rule="evenodd" d="M12.3594 5.14359C10.2755 5.14359 8.27704 5.97139 6.80354 7.44489C5.33004 8.91839 4.50223 10.9169 4.50223 13.0007C4.50223 15.0846 5.33004 17.0831 6.80354 18.5566C8.27704 20.0301 10.2755 20.8579 12.3594 20.8579C14.4432 20.8579 16.4417 20.0301 17.9152 18.5566C19.3887 17.0831 20.2165 15.0846 20.2165 13.0007C20.2165 10.9169 19.3887 8.91839 17.9152 7.44489C16.4417 5.97139 14.4432 5.14359 12.3594 5.14359ZM1.35938 13.0007C1.35938 6.92559 6.28423 2.00073 12.3594 2.00073C18.4345 2.00073 23.3594 6.92559 23.3594 13.0007C23.3594 19.0759 18.4345 24.0007 12.3594 24.0007C6.28423 24.0007 1.35938 19.0759 1.35938 13.0007Z" fill="black"/>
<path fill-rule="evenodd" clip-rule="evenodd" d="M12.3594 2.00073V5.14359C14.4432 5.14359 16.4417 5.97139 17.9152 7.44489C19.3887 8.91839 20.2165 10.9169 20.2165 13.0007C20.2165 14.0352 20.0125 15.0486 19.6268 15.9872L22.533 17.1912C23.0656 15.8997 23.3594 14.4845 23.3594 13.0007C23.3594 6.92559 18.4345 2.00073 12.3594 2.00073Z" fill="#00D66F"/>
<path d="M12.3594 20.8579C10.2755 20.8579 8.27704 20.0301 6.80354 18.5566C6.0615 17.8145 5.48321 16.9394 5.09193 15.9872L2.18571 17.1912C3.83365 21.1878 7.768 24.0007 12.3594 24.0007C16.9507 24.0007 20.8851 21.1878 22.533 17.1912L19.6268 15.9872C19.2355 16.9394 18.6573 17.8145 17.9152 18.5566C16.4417 20.0301 14.4432 20.8579 12.3594 20.8579Z" fill="#00D66F"/>
</svg>
