<svg width="40" height="40" viewBox="0 0 40 40" fill="none" xmlns="http://www.w3.org/2000/svg">
<path d="M5 14.166C5 11.836 5 10.671 5.38 9.75268C5.63128 9.14587 5.99965 8.5945 6.46406 8.13008C6.92848 7.66566 7.47985 7.29729 8.08667 7.04602C9.005 6.66602 10.17 6.66602 12.5 6.66602H27.5C29.83 6.66602 30.995 6.66602 31.9133 7.04602C32.5202 7.29729 33.0715 7.66566 33.5359 8.13008C34.0004 8.5945 34.3687 9.14587 34.62 9.75268C35 10.671 35 11.836 35 14.166V15.416C35 15.7475 34.8683 16.0655 34.6339 16.2999C34.3995 16.5343 34.0815 16.666 33.75 16.666H33.3333C32.4493 16.666 31.6014 17.0172 30.9763 17.6423C30.3512 18.2674 30 19.1153 30 19.9993C30 20.8834 30.3512 21.7313 30.9763 22.3564C31.6014 22.9815 32.4493 23.3327 33.3333 23.3327H33.75C34.0815 23.3327 34.3995 23.4644 34.6339 23.6988C34.8683 23.9332 35 24.2512 35 24.5827V25.8327C35 28.1627 35 29.3277 34.62 30.246C34.3687 30.8528 34.0004 31.4042 33.5359 31.8686C33.0715 32.333 32.5202 32.7014 31.9133 32.9527C30.995 33.3327 29.83 33.3327 27.5 33.3327H12.5C10.17 33.3327 9.005 33.3327 8.08667 32.9527C7.47985 32.7014 6.92848 32.333 6.46406 31.8686C5.99965 31.4042 5.63128 30.8528 5.38 30.246C5 29.3277 5 28.1627 5 25.8327V24.5827C5 24.2512 5.1317 23.9332 5.36612 23.6988C5.60054 23.4644 5.91848 23.3327 6.25 23.3327H6.66667C7.55072 23.3327 8.39857 22.9815 9.02369 22.3564C9.64881 21.7313 10 20.8834 10 19.9993C10 19.1153 9.64881 18.2674 9.02369 17.6423C8.39857 17.0172 7.55072 16.666 6.66667 16.666H6.25C5.91848 16.666 5.60054 16.5343 5.36612 16.2999C5.1317 16.0655 5 15.7475 5 15.416V14.166Z" fill="#7100EA"/>
<path d="M19.3248 14.2525C19.4021 14.1464 19.5034 14.0602 19.6204 14.0007C19.7374 13.9412 19.8668 13.9102 19.9981 13.9102C20.1294 13.9102 20.2588 13.9412 20.3758 14.0007C20.4928 14.0602 20.5941 14.1464 20.6714 14.2525L22.2698 16.4392C22.3727 16.58 22.5173 16.6849 22.6831 16.7392L25.2548 17.5842C25.3792 17.625 25.4922 17.6946 25.5847 17.7873C25.6773 17.88 25.7466 17.9932 25.7872 18.1177C25.8278 18.2422 25.8384 18.3745 25.8183 18.5039C25.7982 18.6333 25.7479 18.7562 25.6714 18.8625L24.0864 21.0592C23.9842 21.2003 23.9289 21.3699 23.9281 21.5442L23.9198 24.2525C23.9195 24.3836 23.8883 24.5129 23.8287 24.6297C23.769 24.7465 23.6827 24.8476 23.5766 24.9247C23.4706 25.0019 23.3478 25.0529 23.2183 25.0736C23.0888 25.0944 22.9563 25.0843 22.8314 25.0442L20.2531 24.2142C20.0873 24.1609 19.9089 24.1609 19.7431 24.2142L17.1648 25.0442C17.0399 25.0843 16.9073 25.0944 16.7779 25.0736C16.6484 25.0529 16.5256 25.0019 16.4196 24.9247C16.3135 24.8476 16.2272 24.7465 16.1675 24.6297C16.1079 24.5129 16.0767 24.3836 16.0764 24.2525L16.0681 21.5442C16.0673 21.3699 16.0119 21.2003 15.9098 21.0592L14.3248 18.8625C14.2483 18.7562 14.198 18.6333 14.1779 18.5039C14.1577 18.3745 14.1684 18.2422 14.209 18.1177C14.2496 17.9932 14.3189 17.88 14.4114 17.7873C14.5039 17.6946 14.617 17.625 14.7414 17.5842L17.3131 16.7392C17.4789 16.6849 17.6234 16.58 17.7264 16.4392L19.3248 14.2525Z" fill="white"/>
</svg>
